# xmcd
#
# Track frame offsets:
#	150
#	12610
#	34372
#	49137
#	67292
#	84715
#	107847
#	127025
#	146455
#	165695
#	181995
#	205830
#	219647
#	235167
#	247292
#	261685
#
# Disc length: 3690 seconds
#
# Revision: 2
# Processed by: cddbd v1.4PL0 Copyright (c) Steve Scherf et al.
# Submitted via: EZCDDA 4.3.2
#
DISCID=050e6810
DTITLE=Dupree, Champion Jack - The Blues Of Champion Jack Dupree
DYEAR=1900
DGENRE=
TTITLE0=When I've Been Drinking
TTITLE1=The Cold Ground Is My Bed
TTITLE2=Lonesome Bedroom Blues
TTITLE3=A Good Woman Is Hard To Find
TTITLE4=I Hate To Be Alone
TTITLE5=Mercy On Me
TTITLE6=SLeeping In The Street
TTITLE7=I'm A Gamblin' Man
TTITLE8=I'm Growing Older Every Day
TTITLE9=Door To Door Blues
TTITLE10=TV Mama
TTITLE11=Work House Blues
TTITLE12=Sweet Mama
TTITLE13=Rock Me Baby
TTITLE14=Dirty Mistreater
TTITLE15=I Feel So Good
EXTD=
EXTT0=
EXTT1=
EXTT2=
EXTT3=
EXTT4=
EXTT5=
EXTT6=
EXTT7=
EXTT8=
EXTT9=
EXTT10=
EXTT11=
EXTT12=
EXTT13=
EXTT14=
EXTT15=
PLAYORDER=
